<svg width="60" height="60" viewBox="0 0 60 60" fill="none" xmlns="http://www.w3.org/2000/svg">
<path d="M20.3571 16.0714C20.3571 14.3304 18.8839 12.8571 17.1429 12.8571C15.2679 12.8571 13.9286 14.3304 13.9286 16.0714V43.9286C13.9286 45.8036 15.2679 47.1429 17.1429 47.1429C18.8839 47.1429 20.3571 45.8036 20.3571 43.9286V16.0714ZM30 12.8571C28.125 12.8571 26.7857 14.3304 26.7857 16.0714V43.9286C26.7857 45.8036 28.125 47.1429 30 47.1429C31.7411 47.1429 33.2143 45.8036 33.2143 43.9286V16.0714C33.2143 14.3304 31.7411 12.8571 30 12.8571ZM60 18.2143C60 12.9911 55.5804 8.57143 50.3571 8.57143H47.1429V6.42857C47.1429 2.94643 44.1964 0 40.7143 0H6.42857C2.8125 0 0 2.94643 0 6.42857V53.5714C0 57.1875 2.8125 60 6.42857 60H40.7143C44.1964 60 47.1429 57.1875 47.1429 53.5714V49.8214L54.375 46.4732C57.7232 44.8661 60 41.5179 60 37.7679V18.2143ZM39.9107 6.42857C40.3125 6.42857 40.7143 6.83036 40.7143 7.23214V52.7679C40.7143 53.3036 40.3125 53.5714 39.9107 53.5714H7.09821C6.69643 53.5714 6.42857 53.3036 6.42857 52.9018V7.23214C6.42857 6.83036 6.69643 6.42857 7.23214 6.42857H39.9107ZM53.5714 18.2143V37.7679C53.5714 38.9732 52.7679 40.1786 51.6964 40.7143L47.1429 42.7232V15H50.3571C52.0982 15 53.5714 16.4732 53.5714 18.2143Z" fill="white"/>
</svg>
