<svg width="23" height="23" viewBox="0 0 23 23" fill="none" xmlns="http://www.w3.org/2000/svg">
<path d="M7.80357 6.16071C7.80357 5.4933 7.23884 4.92857 6.57143 4.92857C5.85268 4.92857 5.33929 5.4933 5.33929 6.16071V16.8393C5.33929 17.558 5.85268 18.0714 6.57143 18.0714C7.23884 18.0714 7.80357 17.558 7.80357 16.8393V6.16071ZM11.5 4.92857C10.7812 4.92857 10.2679 5.4933 10.2679 6.16071V16.8393C10.2679 17.558 10.7812 18.0714 11.5 18.0714C12.1674 18.0714 12.7321 17.558 12.7321 16.8393V6.16071C12.7321 5.4933 12.1674 4.92857 11.5 4.92857ZM23 6.98214C23 4.97991 21.3058 3.28571 19.3036 3.28571H18.0714V2.46429C18.0714 1.12946 16.942 0 15.6071 0H2.46429C1.07812 0 0 1.12946 0 2.46429V20.5357C0 21.9219 1.07812 23 2.46429 23H15.6071C16.942 23 18.0714 21.9219 18.0714 20.5357V19.0982L20.8438 17.8147C22.1272 17.1987 23 15.9152 23 14.4777V6.98214ZM15.2991 2.46429C15.4531 2.46429 15.6071 2.6183 15.6071 2.77232V20.2277C15.6071 20.433 15.4531 20.5357 15.2991 20.5357H2.72098C2.56696 20.5357 2.46429 20.433 2.46429 20.279V2.77232C2.46429 2.6183 2.56696 2.46429 2.77232 2.46429H15.2991ZM20.5357 6.98214V14.4777C20.5357 14.9397 20.2277 15.4018 19.817 15.6071L18.0714 16.3772V5.75H19.3036C19.971 5.75 20.5357 6.31473 20.5357 6.98214Z" fill="#282828"/>
</svg>
