<svg width="27" height="31" viewBox="0 0 27 31" fill="none" xmlns="http://www.w3.org/2000/svg">
<path d="M26.0453 21.3429C24.937 20.1082 22.7789 18.2855 22.7789 12.2296C22.7789 7.70227 19.6291 4.05692 15.3127 3.11618V1.88147C15.3127 0.881939 14.4961 0 13.5045 0C12.4546 0 11.638 0.881939 11.638 1.88147V3.11618C7.32163 4.05692 4.17185 7.70227 4.17185 12.2296C4.17185 18.2855 2.01368 20.1082 0.905421 21.3429C0.555446 21.6957 0.380459 22.1661 0.438788 22.5776C0.438788 23.5772 1.13874 24.4591 2.30532 24.4591H24.6454C25.812 24.4591 26.5119 23.5772 26.5703 22.5776C26.5703 22.1661 26.3953 21.6957 26.0453 21.3429ZM4.34684 21.6369C5.57176 20.0494 6.91333 17.286 6.97166 12.2883C6.97166 12.2883 6.97166 12.2883 6.97166 12.2296C6.97166 8.643 9.88811 5.64441 13.5045 5.64441C17.0626 5.64441 20.0374 8.643 20.0374 12.2296C20.0374 12.2883 19.9791 12.2883 19.9791 12.2883C20.0374 17.286 21.379 20.0494 22.6039 21.6369H4.34684ZM13.5045 30.1035C15.546 30.1035 17.1793 28.4572 17.1793 26.3406H9.77146C9.77146 28.4572 11.4047 30.1035 13.5045 30.1035Z" fill="white"/>
</svg>
