<svg width="64" height="60" viewBox="0 0 64 60" fill="none" xmlns="http://www.w3.org/2000/svg">
<path d="M60.878 30.9073H53.3854V19.9024L58.0683 15.1024C59.239 14.0488 59.239 12.2927 58.0683 11.239C57.0146 10.0683 55.2585 10.0683 54.2049 11.239L49.4049 15.922H47.8829C47.8829 7.14146 40.7415 0 31.961 0C23.0634 0 16.039 7.14146 16.039 15.922H14.1659L9.36585 11.239C8.31219 10.0683 6.5561 10.0683 5.50244 11.239C4.33171 12.2927 4.33171 14.0488 5.50244 15.1024L10.3024 19.9024V30.9073H2.80976C1.17073 30.9073 0 32.1951 0 33.7171C0 35.3561 1.17073 36.5268 2.80976 36.5268H10.3024V39.3366C10.3024 42.8488 11.122 46.0098 12.761 48.8195L6.43902 55.2585C5.26829 56.3122 5.26829 58.0683 6.43902 59.122C7.49268 60.2927 9.24878 60.2927 10.3024 59.122L16.2732 53.1512C19.6683 56.3122 24.1171 58.0683 29.0341 58.0683H34.6537C39.4537 58.0683 43.9024 56.3122 47.2976 53.1512L53.2683 59.122C54.322 60.2927 56.078 60.2927 57.1317 59.122C58.3024 58.0683 58.3024 56.3122 57.1317 55.2585L50.8098 48.8195C52.4488 46.0098 53.3854 42.8488 53.3854 39.3366V36.5268H60.878C62.4 36.5268 63.6878 35.3561 63.6878 33.7171C63.6878 32.1951 62.4 30.9073 60.878 30.9073ZM31.961 5.61951C37.5805 5.61951 42.2634 10.3024 42.2634 15.922H21.6585C21.6585 10.3024 26.2244 5.61951 31.961 5.61951ZM34.6537 52.4488V30.439C34.6537 29.7366 33.9512 29.0341 33.2488 29.0341H30.439C29.6195 29.0341 29.0341 29.7366 29.0341 30.439V52.4488C21.7756 52.4488 15.922 46.5951 15.922 39.3366V21.5415H47.7659V39.3366C47.7659 46.5951 41.7951 52.4488 34.6537 52.4488Z" fill="white"/>
</svg>
