<svg width="25" height="23" viewBox="0 0 25 23" fill="none" xmlns="http://www.w3.org/2000/svg">
<path d="M23.3366 11.8478H20.4644V7.62927L22.2595 5.78927C22.7083 5.38537 22.7083 4.71219 22.2595 4.30829C21.8556 3.85951 21.1824 3.85951 20.7785 4.30829L18.9385 6.10341H18.3551C18.3551 2.73756 15.6176 0 12.2517 0C8.84098 0 6.14829 2.73756 6.14829 6.10341H5.43025L3.59025 4.30829C3.18634 3.85951 2.51317 3.85951 2.10927 4.30829C1.66049 4.71219 1.66049 5.38537 2.10927 5.78927L3.94927 7.62927V11.8478H1.07707C0.448781 11.8478 0 12.3415 0 12.9249C0 13.5532 0.448781 14.002 1.07707 14.002H3.94927V15.079C3.94927 16.4254 4.26342 17.6371 4.89171 18.7141L2.46829 21.1824C2.01951 21.5863 2.01951 22.2595 2.46829 22.6634C2.8722 23.1122 3.54537 23.1122 3.94927 22.6634L6.23805 20.3746C7.53951 21.5863 9.24488 22.2595 11.1298 22.2595H13.2839C15.1239 22.2595 16.8293 21.5863 18.1307 20.3746L20.4195 22.6634C20.8234 23.1122 21.4966 23.1122 21.9005 22.6634C22.3493 22.2595 22.3493 21.5863 21.9005 21.1824L19.4771 18.7141C20.1054 17.6371 20.4644 16.4254 20.4644 15.079V14.002H23.3366C23.92 14.002 24.4137 13.5532 24.4137 12.9249C24.4137 12.3415 23.92 11.8478 23.3366 11.8478ZM12.2517 2.15415C14.4059 2.15415 16.201 3.94927 16.201 6.10341H8.30244C8.30244 3.94927 10.0527 2.15415 12.2517 2.15415ZM13.2839 20.1054V11.6683C13.2839 11.399 13.0146 11.1298 12.7454 11.1298H11.6683C11.3541 11.1298 11.1298 11.399 11.1298 11.6683V20.1054C8.34732 20.1054 6.10342 17.8615 6.10342 15.079V8.25756H18.3102V15.079C18.3102 17.8615 16.0215 20.1054 13.2839 20.1054Z" fill="#282828"/>
</svg>
