<svg width="16" height="16" viewBox="0 0 16 16" fill="none" xmlns="http://www.w3.org/2000/svg">
<path d="M15.625 0H14.75C14.5312 0 14.375 0.1875 14.375 0.40625L14.4375 3.46875C13.0625 1.40625 10.6875 0 8 0C4.1875 0 1.03125 2.71875 0.375 6.3125C0.3125 6.5625 0.5 6.75 0.75 6.75H1.625C1.8125 6.75 1.96875 6.65625 2 6.46875C2.59375 3.71875 5.03125 1.625 8 1.625C10.4688 1.625 12.5938 3.125 13.5625 5.25L9.625 5.15625C9.40625 5.15625 9.25 5.3125 9.25 5.53125V6.375C9.25 6.59375 9.40625 6.75 9.625 6.75H15.625C15.8125 6.75 16 6.59375 16 6.375V0.375C16 0.1875 15.8125 0 15.625 0ZM15.2188 8.75H14.3438C14.1562 8.75 14 8.875 13.9688 9.0625C13.375 11.8125 10.9375 13.875 8 13.875C5.5 13.875 3.375 12.4062 2.40625 10.2812L6.34375 10.375C6.5625 10.375 6.75 10.2188 6.75 10V9.125C6.75 8.9375 6.5625 8.75 6.375 8.75H0.375C0.15625 8.75 0 8.9375 0 9.125V15.125C0 15.3438 0.15625 15.5 0.375 15.5H1.21875C1.4375 15.5 1.59375 15.3438 1.59375 15.125L1.53125 12.0625C2.90625 14.125 5.28125 15.5 8 15.5C11.7812 15.5 14.9375 12.8125 15.5938 9.21875C15.6562 8.96875 15.4688 8.75 15.2188 8.75Z" fill="white"/>
</svg>
