<svg width="31" height="31" viewBox="0 0 31 31" fill="none" xmlns="http://www.w3.org/2000/svg">
<path d="M15.5002 0C6.93774 0 0.000244141 6.9375 0.000244141 15.5C0.000244141 24.0625 6.93774 31 15.5002 31C24.0627 31 31.0002 24.0625 31.0002 15.5C31.0002 6.9375 24.0627 0 15.5002 0ZM15.5002 28C8.56274 28 3.00024 22.4375 3.00024 15.5C3.00024 8.625 8.56274 3 15.5002 3C22.3752 3 28.0002 8.625 28.0002 15.5C28.0002 22.4375 22.3752 28 15.5002 28ZM19.3127 21.5C19.6877 21.75 20.1252 21.6875 20.3752 21.3125L21.5627 19.75C21.8127 19.375 21.7502 18.9375 21.3752 18.6875L17.2502 15.625V6.75C17.2502 6.375 16.8752 6 16.5002 6H14.5002C14.0627 6 13.7502 6.375 13.7502 6.75V17.0625C13.7502 17.25 13.8127 17.5 14.0002 17.625L19.3127 21.5Z" fill="#323232"/>
</svg>
