<svg width="20" height="20" viewBox="0 0 20 20" fill="none" xmlns="http://www.w3.org/2000/svg">
<g opacity="0.7">
<path d="M0.506887 0.506927C0.971796 0.0420175 1.72556 0.0420174 2.19047 0.506927L18.8917 17.2081C19.3566 17.673 19.3566 18.4268 18.8917 18.8917C18.4268 19.3566 17.673 19.3566 17.2081 18.8917L0.506886 2.19051C0.0419763 1.7256 0.0419768 0.971837 0.506887 0.506927Z" fill="#282828"/>
<path d="M0.506886 18.8917C0.0419757 18.4268 0.0419757 17.673 0.506885 17.2081L17.2081 0.506885C17.673 0.0419758 18.4268 0.0419757 18.8917 0.506885C19.3566 0.971795 19.3566 1.72556 18.8917 2.19047L2.19047 18.8917C1.72556 19.3566 0.971795 19.3566 0.506886 18.8917Z" fill="#282828"/>
</g>
</svg>
