<svg width="18" height="21" viewBox="0 0 18 21" fill="none" xmlns="http://www.w3.org/2000/svg">
<path d="M10.7188 16.75H11.6562C11.8906 16.75 12.125 16.5547 12.125 16.2812V7.84375C12.125 7.60938 11.8906 7.375 11.6562 7.375H10.7188C10.4453 7.375 10.25 7.60938 10.25 7.84375V16.2812C10.25 16.5547 10.4453 16.75 10.7188 16.75ZM17.125 3.625H13.8828L12.5547 1.4375C12.2422 0.890625 11.6172 0.5 10.9531 0.5H7.00781C6.34375 0.5 5.71875 0.890625 5.40625 1.4375L4.07812 3.625H0.875C0.523438 3.625 0.25 3.9375 0.25 4.25V4.875C0.25 5.22656 0.523438 5.5 0.875 5.5H1.5V18.625C1.5 19.6797 2.32031 20.5 3.375 20.5H14.625C15.6406 20.5 16.5 19.6797 16.5 18.625V5.5H17.125C17.4375 5.5 17.75 5.22656 17.75 4.875V4.25C17.75 3.9375 17.4375 3.625 17.125 3.625ZM6.92969 2.49219C6.96875 2.45312 7.04688 2.375 7.125 2.375C7.125 2.375 7.125 2.375 7.16406 2.375H10.8359C10.9141 2.375 10.9922 2.45312 11.0312 2.49219L11.6953 3.625H6.26562L6.92969 2.49219ZM14.625 18.625H3.375V5.5H14.625V18.625ZM6.34375 16.75H7.28125C7.51562 16.75 7.75 16.5547 7.75 16.2812V7.84375C7.75 7.60938 7.51562 7.375 7.28125 7.375H6.34375C6.07031 7.375 5.875 7.60938 5.875 7.84375V16.2812C5.875 16.5547 6.07031 16.75 6.34375 16.75Z" fill="#323232"/>
</svg>
