<svg width="51" height="44" viewBox="0 0 51 44" fill="none" xmlns="http://www.w3.org/2000/svg">
<path opacity="0.7" d="M35.364 29.158C35.1904 29.3272 35.1904 29.4965 35.1904 29.6657V39.2269H4.64824V9.44338H25.5592C25.7328 9.44338 25.9063 9.44338 26.0798 9.27415L28.8564 6.56656C29.2902 6.1435 28.9432 5.38199 28.3358 5.38199H4.64824C2.30552 5.38199 0.483398 7.24346 0.483398 9.44338V39.2269C0.483398 41.5114 2.30552 43.2882 4.64824 43.2882H35.1904C37.4464 43.2882 39.3553 41.5114 39.3553 39.2269V26.9581C39.3553 26.3658 38.5744 26.0274 38.1405 26.4504L35.364 29.158ZM48.8997 12.151C50.8954 10.2049 50.8954 7.07424 48.8997 5.12816L45.1687 1.48983C43.173 -0.456247 39.9626 -0.456247 37.967 1.48983L15.2339 23.6582L14.3662 31.3579C14.1059 33.5578 16.0148 35.4193 18.2708 35.1655L26.1666 34.3194L48.8997 12.151ZM40.3965 14.6893L24.2577 30.4272L18.5311 31.1041L19.2252 25.5197L35.364 9.78183L40.3965 14.6893ZM45.9496 8.00497C46.3834 8.34342 46.3834 8.85109 46.0364 9.27415L43.3466 11.8971L38.3141 6.90501L40.9171 4.36665C41.2642 3.94359 41.8715 3.94359 42.2186 4.36665L45.9496 8.00497Z" fill="#282828"/>
</svg>
