<svg width="28" height="25" viewBox="0 0 28 25" fill="none" xmlns="http://www.w3.org/2000/svg">
<path d="M28.7189 22.7448L0.687663 0.854187C0.547038 0.760437 0.359538 0.713562 0.218913 0.713562C-0.0623369 0.713562 -0.249837 0.807312 -0.390462 0.947937L-0.859212 1.55731C-0.952962 1.69794 -1.04671 1.83856 -1.04671 2.02606C-1.04671 2.26044 -0.906087 2.49481 -0.718587 2.58856L27.3127 24.5261C27.4064 24.6198 27.5939 24.6667 27.7345 24.6667C28.0158 24.6667 28.2033 24.5729 28.3439 24.3854L28.8127 23.8229C28.9064 23.6823 29.0002 23.5417 29.0002 23.3542C29.0002 23.1198 28.8595 22.8854 28.7189 22.7448ZM12.8752 7.55731L19.2033 12.4792C19.1095 9.66669 16.8127 7.41669 14.0002 7.41669C13.6252 7.46356 13.2502 7.46356 12.8752 7.55731ZM15.0783 17.8229L8.75016 12.9011C8.84391 15.7136 11.1408 17.9167 14.0002 17.9167C14.3283 17.9167 14.7033 17.9167 15.0783 17.8229ZM14.0002 5.91669C18.5939 5.91669 22.8595 8.49481 25.1095 12.6667C24.547 13.7448 23.8908 14.6823 23.047 15.5261L24.8283 16.8854C25.8127 15.8542 26.6564 14.6823 27.3127 13.3698C27.4064 13.1823 27.5002 12.9479 27.5002 12.7136C27.5002 12.4323 27.4064 12.1979 27.3127 12.0104C24.7814 7.04169 19.7189 3.66669 14.0002 3.66669C12.2658 3.66669 10.6252 3.99481 9.07829 4.55731L11.2345 6.29169C12.1252 6.05731 13.0627 5.91669 14.0002 5.91669ZM14.0002 19.4167C9.35954 19.4167 5.09391 16.8386 2.84391 12.6667C3.40641 11.6354 4.06266 10.6979 4.90641 9.85419L3.12516 8.49481C2.14079 9.52606 1.29704 10.6979 0.640788 12.0104C0.547038 12.1979 0.500163 12.4323 0.500163 12.6667C0.500163 12.9479 0.547038 13.1823 0.640788 13.3698C3.17204 18.3386 8.23454 21.6667 14.0002 21.6667C15.6877 21.6667 17.3283 21.3386 18.8752 20.8229L16.7189 19.0886C15.8283 19.3229 14.8908 19.4167 14.0002 19.4167Z" fill="#282828"/>
</svg>
