<svg width="78" height="60" viewBox="0 0 78 60" fill="none" xmlns="http://www.w3.org/2000/svg">
<path d="M76.9575 33.3196L70.7902 8.91846C69.9857 5.70073 67.9746 3.01928 65.025 1.41042C62.2095 -0.0643783 58.7236 -0.466595 55.64 0.605983L53.6289 1.27634C52.4223 1.67856 51.886 2.88521 52.2882 3.95779L52.9585 6.10295C53.3608 7.17552 54.5674 7.71181 55.64 7.44367L57.3829 6.77331C58.8577 6.37109 60.4666 6.37109 61.8073 7.04145C63.2821 7.71181 64.2206 9.05254 64.6228 10.5273L69.7176 31.1745C66.768 30.236 63.014 29.4315 58.8577 29.4315C53.4948 29.4315 47.3275 30.6382 41.0261 34.2581H36.0654C29.764 30.6382 23.5967 29.4315 18.2338 29.4315C14.0776 29.4315 10.3236 30.236 7.37397 31.1745L12.4687 10.5273C12.8709 9.05254 13.8094 7.71181 15.2842 7.04145C16.625 6.37109 18.2338 6.37109 19.7086 6.77331L21.4516 7.44367C22.5241 7.71181 23.7308 7.17552 24.133 6.10295L24.8034 3.95779C25.2056 2.88521 24.6693 1.67856 23.4626 1.27634L21.4516 0.605983C18.3679 -0.466595 14.882 -0.0643783 12.0665 1.41042C9.11691 3.01928 7.10583 5.70073 6.3014 8.91846L0.134072 33.3196C0 33.99 0 34.6603 0 35.3307V44.8498C0 53.2964 6.83769 60 15.4183 60H20.379C28.4233 60 35.1269 53.9668 35.7973 45.9224L36.1995 40.6936H40.892L41.2943 45.9224C41.9646 53.9668 48.6682 60 56.7126 60H61.6732C70.2539 60 77.2256 53.2964 77.2256 44.8498V35.3307C77.2256 34.6603 77.0916 33.99 76.9575 33.3196ZM29.3618 45.3861C28.9596 50.0787 25.0715 53.5645 20.379 53.5645H15.4183C10.4576 53.5645 6.43547 49.6764 6.43547 44.8498V38.2803C8.98284 37.2077 13.2732 35.867 18.2338 35.867C22.256 35.867 26.1441 36.6714 29.8981 38.4144L29.3618 45.3861ZM70.7902 44.8498C70.7902 49.6764 66.6339 53.5645 61.6732 53.5645H56.7126C52.02 53.5645 48.1319 50.0787 47.7297 45.3861L47.1934 38.4144C50.9475 36.6714 54.8356 35.867 58.8577 35.867C63.8184 35.867 68.1087 37.2077 70.7902 38.2803V44.8498Z" fill="white"/>
</svg>
