<svg width="30" height="23" viewBox="0 0 30 23" fill="none" xmlns="http://www.w3.org/2000/svg">
<path d="M29.5004 12.7725L27.1362 3.41874C26.8279 2.18528 26.0569 1.15739 24.9263 0.54066C23.847 -0.0246783 22.5107 -0.178861 21.3287 0.232293L20.5577 0.489265C20.0952 0.643448 19.8896 1.106 20.0438 1.51715L20.3008 2.33946C20.455 2.75062 20.9175 2.9562 21.3287 2.85341L21.9968 2.59643C22.5621 2.44225 23.1789 2.44225 23.6928 2.69922C24.2581 2.9562 24.6179 3.47014 24.7721 4.03548L26.7251 11.9502C25.5944 11.5904 24.1554 11.2821 22.5621 11.2821C20.5064 11.2821 18.1422 11.7446 15.7267 13.1323H13.8251C11.4096 11.7446 9.04541 11.2821 6.98963 11.2821C5.39641 11.2821 3.95737 11.5904 2.82669 11.9502L4.77968 4.03548C4.93386 3.47014 5.29362 2.9562 5.85896 2.69922C6.3729 2.44225 6.98963 2.44225 7.55497 2.59643L8.2231 2.85341C8.63425 2.9562 9.0968 2.75062 9.25099 2.33946L9.50796 1.51715C9.66214 1.106 9.45656 0.643448 8.99402 0.489265L8.2231 0.232293C7.04103 -0.178861 5.70478 -0.0246783 4.62549 0.54066C3.49482 1.15739 2.7239 2.18528 2.41554 3.41874L0.0513944 12.7725C0 13.0295 0 13.2865 0 13.5434V17.1924C0 20.4303 2.62111 23 5.91035 23H7.81194C10.8956 23 13.4653 20.6873 13.7223 17.6036L13.8765 15.5992H15.6753L15.8295 17.6036C16.0864 20.6873 18.6562 23 21.7398 23H23.6414C26.9307 23 29.6032 20.4303 29.6032 17.1924V13.5434C29.6032 13.2865 29.5518 13.0295 29.5004 12.7725ZM11.2554 17.398C11.1012 19.1968 9.61075 20.5331 7.81194 20.5331H5.91035C4.00876 20.5331 2.46693 19.0426 2.46693 17.1924V14.6741C3.44342 14.263 5.08804 13.749 6.98963 13.749C8.53147 13.749 10.0219 14.0574 11.4609 14.7255L11.2554 17.398ZM27.1362 17.1924C27.1362 19.0426 25.543 20.5331 23.6414 20.5331H21.7398C19.941 20.5331 18.4506 19.1968 18.2964 17.398L18.0908 14.7255C19.5299 14.0574 21.0203 13.749 22.5621 13.749C24.4637 13.749 26.1083 14.263 27.1362 14.6741V17.1924Z" fill="#282828"/>
</svg>
