<svg width="26" height="21" viewBox="0 0 26 21" fill="none" xmlns="http://www.w3.org/2000/svg">
<path d="M25.5024 10.2857L14.4509 1.20293C14.0482 0.844987 13.4666 0.666016 12.8849 0.666016C12.2585 0.666016 11.6769 0.844987 11.2742 1.20293L0.222737 10.2857C0.0885089 10.4199 -0.000976562 10.5989 -0.000976562 10.8226C-0.000976562 11.0016 0.0437662 11.1806 0.133252 11.27L0.625422 11.8517C0.714907 11.9859 0.938621 12.0754 1.16233 12.0754C1.34131 12.0754 1.47553 12.0307 1.60976 11.9412L2.86256 10.9121V19.2342C2.86256 20.0396 3.48896 20.666 4.29432 20.666H10.0214C10.782 20.666 11.4084 20.0396 11.4532 19.2342V14.581H14.3167V19.2342C14.3167 20.0396 14.9431 20.666 15.7485 20.666H21.4755C22.2362 20.666 22.8626 20.0396 22.9073 19.279V10.9121L24.1154 11.9412C24.2496 12.0307 24.3838 12.1202 24.5628 12.1202C24.7865 12.1202 25.0102 11.9859 25.1444 11.8517L25.5919 11.27C25.6813 11.1806 25.7708 11.0016 25.7708 10.8226C25.7708 10.5989 25.6366 10.4199 25.5024 10.2857ZM20.7149 18.5184H16.4643V13.8651C16.4196 13.1045 15.7932 12.4781 15.0326 12.4334H10.7373C9.93191 12.4781 9.30551 13.1045 9.30551 13.8651V18.5184H5.01021V9.16713L12.8849 2.67944L20.7596 9.16713L20.7149 18.5184Z" fill="#282828" fill-opacity="0.7"/>
</svg>
