<svg width="39" height="30" viewBox="0 0 39 30" fill="none" xmlns="http://www.w3.org/2000/svg">
<path d="M38.255 14.4295L21.6778 0.805369C21.0738 0.268456 20.2013 0 19.3289 0C18.3893 0 17.5168 0.268456 16.9128 0.805369L0.33557 14.4295C0.134228 14.6309 0 14.8993 0 15.2349C0 15.5034 0.0671141 15.7718 0.201342 15.906L0.939597 16.7785C1.07383 16.9799 1.4094 17.1141 1.74497 17.1141C2.01342 17.1141 2.21476 17.047 2.41611 16.9128L4.2953 15.3691V27.8523C4.2953 29.0604 5.2349 30 6.44295 30H15.0336C16.1745 30 17.1141 29.0604 17.1812 27.8523V20.8725H21.4765V27.8523C21.4765 29.0604 22.4161 30 23.6242 30H32.2148C33.3557 30 34.2953 29.0604 34.3624 27.9195V15.3691L36.1745 16.9128C36.3758 17.047 36.5772 17.1812 36.8456 17.1812C37.1812 17.1812 37.5168 16.9799 37.7181 16.7785L38.3893 15.906C38.5235 15.7718 38.6577 15.5034 38.6577 15.2349C38.6577 14.8993 38.4564 14.6309 38.255 14.4295ZM31.0738 26.7785H24.698V19.7987C24.6309 18.6577 23.6913 17.7181 22.5503 17.651H16.1074C14.8993 17.7181 13.9597 18.6577 13.9597 19.7987V26.7785H7.51678V12.7517L19.3289 3.02013L31.1409 12.7517L31.0738 26.7785Z" fill="black"/>
</svg>
