<svg width="27" height="21" viewBox="0 0 27 21" fill="none" xmlns="http://www.w3.org/2000/svg">
<path d="M25.8344 10.2857L14.783 1.20293C14.3803 0.844987 13.7986 0.666016 13.217 0.666016C12.5906 0.666016 12.0089 0.844987 11.6062 1.20293L0.554768 10.2857C0.42054 10.4199 0.331055 10.5989 0.331055 10.8226C0.331055 11.0016 0.375797 11.1806 0.465283 11.27L0.957453 11.8517C1.04694 11.9859 1.27065 12.0754 1.49437 12.0754C1.67334 12.0754 1.80756 12.0307 1.94179 11.9412L3.19459 10.9121V19.2342C3.19459 20.0396 3.82099 20.666 4.62636 20.666H10.3534C11.1141 20.666 11.7404 20.0396 11.7852 19.2342V14.581H14.6487V19.2342C14.6487 20.0396 15.2751 20.666 16.0805 20.666H21.8076C22.5682 20.666 23.1946 20.0396 23.2393 19.279V10.9121L24.4474 11.9412C24.5816 12.0307 24.7158 12.1202 24.8948 12.1202C25.1185 12.1202 25.3422 11.9859 25.4765 11.8517L25.9239 11.27C26.0134 11.1806 26.1029 11.0016 26.1029 10.8226C26.1029 10.5989 25.9686 10.4199 25.8344 10.2857ZM21.0469 18.5184H16.7964V13.8651C16.7516 13.1045 16.1252 12.4781 15.3646 12.4334H11.0693C10.2639 12.4781 9.63754 13.1045 9.63754 13.8651V18.5184H5.34224V9.16713L13.217 2.67944L21.0917 9.16713L21.0469 18.5184Z" fill="#282828" fill-opacity="0.7"/>
</svg>
