<svg width="60" height="60" viewBox="0 0 60 60" fill="none" xmlns="http://www.w3.org/2000/svg">
<path d="M30 0C13.4274 0 0 13.4274 0 30C0 46.5726 13.4274 60 30 60C46.5726 60 60 46.5726 60 30C60 13.4274 46.5726 0 30 0ZM30 54.1935C16.5726 54.1935 5.80645 43.4274 5.80645 30C5.80645 16.6935 16.5726 5.80645 30 5.80645C43.3064 5.80645 54.1935 16.6935 54.1935 30C54.1935 43.4274 43.3064 54.1935 30 54.1935ZM20.3226 28.0645C22.379 28.0645 24.1935 26.371 24.1935 24.1935C24.1935 22.1371 22.379 20.3226 20.3226 20.3226C18.1452 20.3226 16.4516 22.1371 16.4516 24.1935C16.4516 26.371 18.1452 28.0645 20.3226 28.0645ZM39.6774 20.3226C37.5 20.3226 35.8064 22.1371 35.8064 24.1935C35.8064 26.371 37.5 28.0645 39.6774 28.0645C41.7339 28.0645 43.5484 26.371 43.5484 24.1935C43.5484 22.1371 41.7339 20.3226 39.6774 20.3226ZM40.6452 37.7419H19.3548C17.6613 37.7419 16.4516 39.0726 16.4516 40.6452C16.4516 42.3387 17.6613 43.5484 19.3548 43.5484H40.6452C42.2177 43.5484 43.5484 42.3387 43.5484 40.6452C43.5484 39.0726 42.2177 37.7419 40.6452 37.7419Z" fill="white"/>
</svg>
