<svg width="23" height="23" viewBox="0 0 23 23" fill="none" xmlns="http://www.w3.org/2000/svg">
<path d="M11.5 0C5.14718 0 0 5.14718 0 11.5C0 17.8528 5.14718 23 11.5 23C17.8528 23 23 17.8528 23 11.5C23 5.14718 17.8528 0 11.5 0ZM11.5 20.7742C6.35282 20.7742 2.22581 16.6472 2.22581 11.5C2.22581 6.39919 6.35282 2.22581 11.5 2.22581C16.6008 2.22581 20.7742 6.39919 20.7742 11.5C20.7742 16.6472 16.6008 20.7742 11.5 20.7742ZM7.79032 10.7581C8.57863 10.7581 9.27419 10.1089 9.27419 9.27419C9.27419 8.48589 8.57863 7.79032 7.79032 7.79032C6.95565 7.79032 6.30645 8.48589 6.30645 9.27419C6.30645 10.1089 6.95565 10.7581 7.79032 10.7581ZM15.2097 7.79032C14.375 7.79032 13.7258 8.48589 13.7258 9.27419C13.7258 10.1089 14.375 10.7581 15.2097 10.7581C15.998 10.7581 16.6935 10.1089 16.6935 9.27419C16.6935 8.48589 15.998 7.79032 15.2097 7.79032ZM15.5806 14.4677H7.41935C6.77016 14.4677 6.30645 14.9778 6.30645 15.5806C6.30645 16.2298 6.77016 16.6935 7.41935 16.6935H15.5806C16.1835 16.6935 16.6935 16.2298 16.6935 15.5806C16.6935 14.9778 16.1835 14.4677 15.5806 14.4677Z" fill="#282828"/>
</svg>
