<svg width="59" height="59" viewBox="0 0 59 59" fill="none" xmlns="http://www.w3.org/2000/svg">
<path d="M18.9643 59C22.3884 59 25.2857 56.2344 25.2857 52.6786V6.32143C25.2857 2.89732 22.3884 0 18.9643 0H6.32143C2.76562 0 0 2.89732 0 6.32143V52.6786C0 56.2344 2.76562 59 6.32143 59H18.9643ZM59 52.6786V6.32143C59 2.89732 56.1027 0 52.6786 0H40.0357C36.4799 0 33.7143 2.89732 33.7143 6.32143V52.6786C33.7143 56.2344 36.4799 59 40.0357 59H52.6786C56.1027 59 59 56.2344 59 52.6786Z" fill="white"/>
</svg>
