<svg width="34" height="34" viewBox="0 0 34 34" fill="none" xmlns="http://www.w3.org/2000/svg">
<path d="M31.8199 14.25H19.4449V1.875C19.4449 1.1875 18.7574 0.5 18.0699 0.5H15.3199C14.5465 0.5 13.9449 1.1875 13.9449 1.875V14.25H1.56992C0.796478 14.25 0.194916 14.9375 0.194916 15.625V18.375C0.194916 19.1484 0.796478 19.75 1.56992 19.75H13.9449V32.125C13.9449 32.8984 14.5465 33.5 15.3199 33.5H18.0699C18.7574 33.5 19.4449 32.8984 19.4449 32.125V19.75H31.8199C32.5074 19.75 33.1949 19.1484 33.1949 18.375V15.625C33.1949 14.9375 32.5074 14.25 31.8199 14.25Z" fill="white"/>
</svg>
