<svg width="60" height="60" viewBox="0 0 60 60" fill="none" xmlns="http://www.w3.org/2000/svg">
<path d="M40.1953 41.25H19.6875C18.9844 41.25 18.5156 41.9531 18.75 42.5391C20.0391 45.8203 25.5469 48.75 30 48.75C34.3359 48.75 39.9609 45.8203 41.1328 42.5391C41.3672 41.9531 40.8984 41.25 40.1953 41.25ZM22.5 37.5C24.4922 37.5 26.25 35.8594 26.25 33.75C26.25 31.7578 24.4922 30 22.5 30C20.3906 30 18.75 31.7578 18.75 33.75C18.75 35.8594 20.3906 37.5 22.5 37.5ZM37.5 30C35.3906 30 33.75 31.7578 33.75 33.75C33.75 35.8594 35.3906 37.5 37.5 37.5C39.4922 37.5 41.25 35.8594 41.25 33.75C41.25 31.7578 39.4922 30 37.5 30ZM56.3672 38.9062C56.7188 37.7344 56.9531 36.5625 56.9531 35.3906C56.9531 30.8203 54.4922 26.8359 50.7422 24.6094C50.7422 24.375 50.8594 24.1406 50.8594 23.9062C50.8594 19.5703 48.2812 15.5859 44.6484 13.7109C44.0625 6.09375 37.7344 0 30 0C29.0625 0 28.2422 0.117188 27.6562 0.234375C25.6641 0.585938 24.0234 1.875 23.3203 3.63281C22.6172 5.50781 22.8516 7.5 23.9062 9.14062C24.1406 9.49219 24.375 9.84375 24.375 10.1953C24.375 11.3672 23.4375 12.1875 22.3828 12.1875H20.8594C14.2969 12.1875 9.14062 17.4609 9.14062 23.9062C9.14062 24.1406 9.14062 24.375 9.14062 24.6094C5.50781 26.8359 3.04688 30.8203 3.04688 35.3906C3.04688 36.5625 3.16406 37.7344 3.51562 38.9062C1.28906 41.1328 0 44.1797 0 47.5781C0 54.4922 5.50781 60 12.4219 60H47.4609C54.375 60 60 54.4922 60 47.5781C60 44.1797 58.5938 41.1328 56.3672 38.9062ZM47.4609 54.375H12.4219C8.67188 54.375 5.625 51.3281 5.625 47.5781C5.625 44.1797 8.08594 41.3672 11.3672 40.7812C9.72656 39.6094 8.67188 37.6172 8.67188 35.3906C8.67188 31.6406 11.7188 28.4766 15.4688 28.4766H16.7578C15.5859 27.4219 14.7656 25.7812 14.7656 23.9062C14.7656 20.625 17.4609 17.8125 20.8594 17.8125H22.3828C26.4844 17.8125 30 14.4141 30 10.1953C30 8.55469 29.4141 7.03125 28.4766 5.85938C28.9453 5.74219 29.4141 5.625 30 5.625C35.0391 5.625 39.1406 9.72656 39.1406 14.7656C39.1406 15.9375 38.9062 16.875 38.5547 17.8125H39.1406C42.4219 17.8125 45.2344 20.625 45.2344 23.9062C45.2344 25.7812 44.4141 27.4219 43.125 28.4766H44.4141C48.1641 28.4766 51.3281 31.6406 51.3281 35.3906C51.3281 37.6172 50.1562 39.6094 48.5156 40.7812C51.7969 41.3672 54.375 44.1797 54.375 47.5781C54.375 51.3281 51.2109 54.375 47.4609 54.375Z" fill="white"/>
</svg>
