<svg width="23" height="23" viewBox="0 0 23 23" fill="none" xmlns="http://www.w3.org/2000/svg">
<path d="M15.4082 15.8125H7.54688C7.27734 15.8125 7.09766 16.082 7.1875 16.3066C7.68164 17.5645 9.79297 18.6875 11.5 18.6875C13.1621 18.6875 15.3184 17.5645 15.7676 16.3066C15.8574 16.082 15.6777 15.8125 15.4082 15.8125ZM8.625 14.375C9.38867 14.375 10.0625 13.7461 10.0625 12.9375C10.0625 12.1738 9.38867 11.5 8.625 11.5C7.81641 11.5 7.1875 12.1738 7.1875 12.9375C7.1875 13.7461 7.81641 14.375 8.625 14.375ZM14.375 11.5C13.5664 11.5 12.9375 12.1738 12.9375 12.9375C12.9375 13.7461 13.5664 14.375 14.375 14.375C15.1387 14.375 15.8125 13.7461 15.8125 12.9375C15.8125 12.1738 15.1387 11.5 14.375 11.5ZM21.6074 14.9141C21.7422 14.4648 21.832 14.0156 21.832 13.5664C21.832 11.8145 20.8887 10.2871 19.4512 9.43359C19.4512 9.34375 19.4961 9.25391 19.4961 9.16406C19.4961 7.50195 18.5078 5.97461 17.1152 5.25586C16.8906 2.33594 14.4648 0 11.5 0C11.1406 0 10.8262 0.0449219 10.6016 0.0898438C9.83789 0.224609 9.20898 0.71875 8.93945 1.39258C8.66992 2.11133 8.75977 2.875 9.16406 3.50391C9.25391 3.63867 9.34375 3.77344 9.34375 3.9082C9.34375 4.35742 8.98438 4.67188 8.58008 4.67188H7.99609C5.48047 4.67188 3.50391 6.69336 3.50391 9.16406C3.50391 9.25391 3.50391 9.34375 3.50391 9.43359C2.11133 10.2871 1.16797 11.8145 1.16797 13.5664C1.16797 14.0156 1.21289 14.4648 1.34766 14.9141C0.494141 15.7676 0 16.9355 0 18.2383C0 20.8887 2.11133 23 4.76172 23H18.1934C20.8438 23 23 20.8887 23 18.2383C23 16.9355 22.4609 15.7676 21.6074 14.9141ZM18.1934 20.8438H4.76172C3.32422 20.8438 2.15625 19.6758 2.15625 18.2383C2.15625 16.9355 3.09961 15.8574 4.35742 15.6328C3.72852 15.1836 3.32422 14.4199 3.32422 13.5664C3.32422 12.1289 4.49219 10.916 5.92969 10.916H6.42383C5.97461 10.5117 5.66016 9.88281 5.66016 9.16406C5.66016 7.90625 6.69336 6.82812 7.99609 6.82812H8.58008C10.1523 6.82812 11.5 5.52539 11.5 3.9082C11.5 3.2793 11.2754 2.69531 10.916 2.24609C11.0957 2.20117 11.2754 2.15625 11.5 2.15625C13.4316 2.15625 15.0039 3.72852 15.0039 5.66016C15.0039 6.10938 14.9141 6.46875 14.7793 6.82812H15.0039C16.2617 6.82812 17.3398 7.90625 17.3398 9.16406C17.3398 9.88281 17.0254 10.5117 16.5312 10.916H17.0254C18.4629 10.916 19.6758 12.1289 19.6758 13.5664C19.6758 14.4199 19.2266 15.1836 18.5977 15.6328C19.8555 15.8574 20.8438 16.9355 20.8438 18.2383C20.8438 19.6758 19.6309 20.8438 18.1934 20.8438Z" fill="#282828"/>
</svg>
