<svg width="358" height="344" viewBox="0 0 358 344" fill="none" xmlns="http://www.w3.org/2000/svg">
<path fill-rule="evenodd" clip-rule="evenodd" d="M56.7887 0.542233C43.7957 2.91914 33.383 12.123 29.4859 24.6749L28.6558 27.3483L28.5465 60.889L28.4372 94.4301L25.0844 95.8227C13.3974 100.678 4.95365 110.316 1.16438 123.127L0.147065 126.567L0.0289928 215.828C-0.0510622 276.126 0.0341104 306.16 0.291456 308.39C2.37983 326.488 17.3823 341.23 36.1703 343.645C39.8488 344.118 318.28 344.118 321.958 343.645C333.557 342.154 344.411 335.677 350.904 326.373C353.39 322.81 355.815 317.637 357.013 313.336L358 309.796V218.363V126.929L356.833 122.937C355.258 117.549 353.231 113.316 350.388 109.484C345.871 103.394 339.959 98.7269 333.064 95.8083L329.695 94.3826L329.582 61.0465L329.469 27.7105L328.636 25.0189C325.645 15.3552 319.552 8.06295 310.844 3.72194C307.885 2.24706 303.381 0.876462 299.928 0.400647C295.437 -0.217842 60.1956 -0.0809632 56.7887 0.542233ZM300.15 14.1077C301.671 14.493 303.722 15.2132 304.709 15.7086C309.013 17.869 312.994 22.3327 314.768 26.9862L315.596 29.1589L315.693 89.2953L315.79 149.432L310.575 152.517C299.92 158.821 225.956 202.664 203.036 216.262C189.396 224.354 179.08 230.257 178.777 230.142C178.487 230.031 164.739 221.918 148.225 212.112L118.201 194.282L177.511 194.191L236.821 194.099V186.677V179.255H164.793H92.7659L67.5621 164.317L42.3583 149.38L42.3539 89.9793C42.3499 37.7996 42.4175 30.3198 42.9092 28.4499C44.3323 23.0381 48.4615 18.1452 53.7283 15.63C55.4117 14.8261 57.6112 14.0154 58.6164 13.8281C59.7302 13.621 106.727 13.4722 178.915 13.4476C294.923 13.4077 297.442 13.4215 300.15 14.1077ZM72.3245 57.0416V64.4649H140.134H207.943V57.0416V49.6183H140.134H72.3245V57.0416ZM72.3245 110.634V118.058H178.699H285.073V110.634V103.211H178.699H72.3245V110.634ZM28.4587 125.288V141.21L23.798 138.451C13.3638 132.274 13.8365 132.621 13.8394 131.146C13.8471 127.219 16.2483 121.019 19.4048 116.777C21.4066 114.087 26.9947 109.367 28.178 109.367C28.3323 109.367 28.4587 116.532 28.4587 125.288ZM332.798 111.026C335.721 112.948 339.489 117.152 341.268 120.476C342.975 123.665 344.397 128.822 344.22 131.183L344.109 132.669L337.164 136.766C333.344 139.02 330.095 140.864 329.944 140.867C329.793 140.869 329.67 133.765 329.67 125.08C329.67 110.842 329.727 109.311 330.247 109.509C330.565 109.629 331.713 110.312 332.798 111.026ZM72.3245 148.656V156.079H178.699H285.073V148.656V141.233H178.699H72.3245V148.656ZM54.3457 172.252C76.3978 185.329 102.806 200.99 113.031 207.054C128.283 216.098 131.532 218.161 131.125 218.536C130.853 218.787 119.115 225.8 105.041 234.12C90.9674 242.439 71.5568 253.928 61.9064 259.651C23.2073 282.6 14.2444 287.888 14.0452 287.888C13.9304 287.888 13.8368 256.52 13.8368 218.182C13.8368 179.843 13.93 148.475 14.0441 148.475C14.1581 148.475 32.2941 159.175 54.3457 172.252ZM344.292 218.182C344.292 256.52 344.205 287.888 344.099 287.888C343.993 287.888 336.714 283.626 327.924 278.417C319.133 273.208 301.578 262.803 288.911 255.296C276.245 247.789 257.246 236.543 246.691 230.303C236.136 224.064 227.281 218.766 227.015 218.53C226.628 218.188 228.073 217.184 234.143 213.58C238.33 211.094 263.14 196.387 289.277 180.899C315.414 165.41 338.361 151.785 340.271 150.621C342.181 149.457 343.867 148.499 344.018 148.49C344.169 148.482 344.292 179.843 344.292 218.182ZM166.956 238.993C177.726 245.376 178.877 245.974 179.75 245.637C180.278 245.432 187.977 240.937 196.86 235.647L213.01 226.029L218.062 229.022C257.586 252.447 273.099 261.637 303.351 279.547C322.953 291.153 340.201 301.385 341.679 302.284L344.367 303.919L344.112 306.274C343.419 312.687 340.916 317.73 336.073 322.47C333.308 325.176 332.157 326.015 329.288 327.414C327.387 328.341 324.68 329.401 323.273 329.768C320.806 330.413 315.599 330.437 178.699 330.437H36.6836L33.621 329.446C22.4725 325.84 15.2179 317.211 14.0156 306.126L13.7747 303.905L17.7354 301.556C19.9137 300.264 42.6694 286.777 68.3034 271.583C93.9375 256.39 121.713 239.926 130.028 234.997L145.144 226.035L150.133 229.007C152.876 230.642 160.447 235.136 166.956 238.993Z" fill="#00B624"/>
</svg>
