<svg width="35" height="35" viewBox="0 0 35 35" fill="none" xmlns="http://www.w3.org/2000/svg">
<path d="M33.9574 31.7183L25.9754 23.7363C25.7775 23.6044 25.5796 23.4725 25.3817 23.4725H24.5241C26.5691 21.0976 27.8884 17.9312 27.8884 14.501C27.8884 6.98074 21.6875 0.779851 14.1673 0.779851C6.58111 0.779851 0.446196 6.98074 0.446196 14.501C0.446196 22.0871 6.58111 28.2221 14.1673 28.2221C17.5976 28.2221 20.698 26.9687 23.1388 24.9237V25.7813C23.1388 25.9792 23.2048 26.1771 23.3367 26.375L31.3187 34.357C31.6485 34.6868 32.1763 34.6868 32.4401 34.357L33.9574 32.8397C34.2872 32.5759 34.2872 32.0481 33.9574 31.7183ZM14.1673 25.0557C8.29625 25.0557 3.61261 20.372 3.61261 14.501C3.61261 8.69588 8.29625 3.94626 14.1673 3.94626C19.9724 3.94626 24.722 8.69588 24.722 14.501C24.722 20.372 19.9724 25.0557 14.1673 25.0557Z" fill="#282828"/>
</svg>
