<svg width="23" height="23" viewBox="0 0 23 23" fill="none" xmlns="http://www.w3.org/2000/svg">
<path d="M11.5 0C5.14718 0 0 5.14718 0 11.5C0 17.8528 5.14718 23 11.5 23C17.8528 23 23 17.8528 23 11.5C23 5.14718 17.8528 0 11.5 0ZM11.5 20.7742C6.35282 20.7742 2.22581 16.6472 2.22581 11.5C2.22581 6.39919 6.35282 2.22581 11.5 2.22581C16.6008 2.22581 20.7742 6.39919 20.7742 11.5C20.7742 16.6472 16.6008 20.7742 11.5 20.7742ZM7.79032 10.7581C8.57863 10.7581 9.27419 10.1089 9.27419 9.27419C9.27419 8.48589 8.57863 7.79032 7.79032 7.79032C6.95565 7.79032 6.30645 8.48589 6.30645 9.27419C6.30645 10.1089 6.95565 10.7581 7.79032 10.7581ZM15.2097 10.7581C15.998 10.7581 16.6935 10.1089 16.6935 9.27419C16.6935 8.48589 15.998 7.79032 15.2097 7.79032C14.375 7.79032 13.7258 8.48589 13.7258 9.27419C13.7258 10.1089 14.375 10.7581 15.2097 10.7581ZM15.3952 14.1431C14.4214 15.3024 12.9839 15.9516 11.5 15.9516C9.96976 15.9516 8.53226 15.3024 7.60484 14.1431C7.1875 13.6794 6.49194 13.6331 6.02823 14.004C5.56452 14.375 5.47177 15.1169 5.88911 15.5806C7.28024 17.25 9.32056 18.1774 11.5 18.1774C13.6331 18.1774 15.6734 17.25 17.0645 15.5806C17.4819 15.1169 17.4355 14.375 16.9254 14.004C16.4617 13.6331 15.7661 13.6794 15.3952 14.1431Z" fill="#282828"/>
</svg>
