<svg width="60" height="60" viewBox="0 0 60 60" fill="none" xmlns="http://www.w3.org/2000/svg">
<path d="M30 0C13.4274 0 0 13.4274 0 30C0 46.5726 13.4274 60 30 60C46.5726 60 60 46.5726 60 30C60 13.4274 46.5726 0 30 0ZM30 54.1935C16.5726 54.1935 5.80645 43.4274 5.80645 30C5.80645 16.6935 16.5726 5.80645 30 5.80645C43.3064 5.80645 54.1935 16.6935 54.1935 30C54.1935 43.4274 43.3064 54.1935 30 54.1935ZM20.3226 28.0645C22.379 28.0645 24.1935 26.371 24.1935 24.1935C24.1935 22.1371 22.379 20.3226 20.3226 20.3226C18.1452 20.3226 16.4516 22.1371 16.4516 24.1935C16.4516 26.371 18.1452 28.0645 20.3226 28.0645ZM39.6774 28.0645C41.7339 28.0645 43.5484 26.371 43.5484 24.1935C43.5484 22.1371 41.7339 20.3226 39.6774 20.3226C37.5 20.3226 35.8064 22.1371 35.8064 24.1935C35.8064 26.371 37.5 28.0645 39.6774 28.0645ZM40.1613 36.8952C37.621 39.9194 33.871 41.6129 30 41.6129C26.0081 41.6129 22.2581 39.9194 19.8387 36.8952C18.75 35.6855 16.9355 35.5645 15.7258 36.5323C14.5161 37.5 14.2742 39.4355 15.3629 40.6452C18.9919 45 24.3145 47.4194 30 47.4194C35.5645 47.4194 40.8871 45 44.5161 40.6452C45.6048 39.4355 45.4839 37.5 44.1532 36.5323C42.9435 35.5645 41.129 35.6855 40.1613 36.8952Z" fill="white"/>
</svg>
