<svg width="27" height="30" viewBox="0 0 27 30" fill="none" xmlns="http://www.w3.org/2000/svg">
<path opacity="0.7" d="M18.3398 17.8125C16.6406 17.8125 15.8789 18.75 13.125 18.75C10.3125 18.75 9.55078 17.8125 7.85156 17.8125C3.51562 17.8125 0 21.3867 0 25.7227V27.1875C0 28.7695 1.23047 30 2.8125 30H23.4375C24.9609 30 26.25 28.7695 26.25 27.1875V25.7227C26.25 21.3867 22.6758 17.8125 18.3398 17.8125ZM23.4375 27.1875H2.8125V25.7227C2.8125 22.9102 5.03906 20.625 7.85156 20.625C8.73047 20.625 10.0781 21.5625 13.125 21.5625C16.1133 21.5625 17.4609 20.625 18.3398 20.625C21.1523 20.625 23.4375 22.9102 23.4375 25.7227V27.1875ZM13.125 16.875C17.7539 16.875 21.5625 13.125 21.5625 8.4375C21.5625 3.80859 17.7539 0 13.125 0C8.4375 0 4.6875 3.80859 4.6875 8.4375C4.6875 13.125 8.4375 16.875 13.125 16.875ZM13.125 2.8125C16.1719 2.8125 18.75 5.39062 18.75 8.4375C18.75 11.543 16.1719 14.0625 13.125 14.0625C10.0195 14.0625 7.5 11.543 7.5 8.4375C7.5 5.39062 10.0195 2.8125 13.125 2.8125Z" fill="#282828"/>
</svg>
