<svg width="25" height="25" viewBox="0 0 25 25" fill="none" xmlns="http://www.w3.org/2000/svg">
<path d="M0 8.25893C0 8.64955 0.279018 8.92857 0.669643 8.92857H2.00893C2.34375 8.92857 2.67857 8.64955 2.67857 8.25893V2.67857H8.25893C8.59375 2.67857 8.92857 2.39955 8.92857 2.00893V0.669643C8.92857 0.334821 8.59375 0 8.25893 0H1.33929C0.558036 0 0 0.613839 0 1.33929V8.25893ZM16.0714 0.669643V2.00893C16.0714 2.39955 16.3504 2.67857 16.7411 2.67857H22.3214V8.25893C22.3214 8.64955 22.6004 8.92857 22.9911 8.92857H24.3304C24.6652 8.92857 25 8.64955 25 8.25893V1.33929C25 0.613839 24.3862 0 23.6607 0H16.7411C16.3504 0 16.0714 0.334821 16.0714 0.669643ZM24.3304 16.0714H22.9911C22.6004 16.0714 22.3214 16.4062 22.3214 16.7411V22.3214H16.7411C16.3504 22.3214 16.0714 22.6562 16.0714 22.9911V24.3304C16.0714 24.721 16.3504 25 16.7411 25H23.6607C24.3862 25 25 24.442 25 23.6607V16.7411C25 16.4062 24.6652 16.0714 24.3304 16.0714ZM8.92857 24.3304V22.9911C8.92857 22.6562 8.59375 22.3214 8.25893 22.3214H2.67857V16.7411C2.67857 16.4062 2.34375 16.0714 2.00893 16.0714H0.669643C0.279018 16.0714 0 16.4062 0 16.7411V23.6607C0 24.442 0.558036 25 1.33929 25H8.25893C8.59375 25 8.92857 24.721 8.92857 24.3304Z" fill="white"/>
</svg>
